# AST/ASF file generated using VICON BodyLanguage
# -----------------------------------------------
:version 1.10
:name VICON
:units
  mass 1.0
  length 0.45
  angle deg
:documentation
   .ast/.asf automatically generated from VICON data using
   VICON BodyBuilder and BodyLanguage model FoxedUp or BRILLIANT.MOD
:root
   order TX TY TZ RX RY RZ
   axis XYZ
   position 0 0 0  
   orientation 0 0 0 
:bonedata
  begin
     id 1 
     name lhipjoint
     direction 0.662698 -0.695252 0.27831 
     length 2.53073 
     axis 0 0 0  XYZ
  end
  begin
     id 2 
     name lfemur
     direction 0.34202 -0.939693 0  
     length 7.16147  
     axis 0 0 20  XYZ
    dof rx ry rz
    limits (-160.0 20.0)
           (-70.0 70.0)
           (-60.0 70.0)
  end
  begin
     id 3 
     name ltibia
     direction 0.34202 -0.939693 0   
     length 7.63967   
     axis 0 0 20   XYZ
    dof rx
    limits (-10.0 170.0)
  end
  begin
     id 4 
     name lfoot
     direction 0.0938457 -0.257721 0.961651   
     length 1.89793   
     axis -90 7.62852e-016 20   XYZ
    dof rx rz
    limits (-45.0 90.0)
           (-70.0 20.0)
  end
  begin
     id 5 
     name ltoes
     direction -0.00116841 -0.0030592 0.999995   
     length 0.955649   
     axis -90 7.62852e-016 20   XYZ
    dof rx
    limits (-90.0 20.0)
  end
  begin
     id 6 
     name rhipjoint
     direction -0.649445 -0.705948 0.282592   
     length 2.49238  
     axis 0 0 0  XYZ 
  end
  begin
     id 7 
     name rfemur
     direction -0.34202 -0.939693 0   
     length 6.90728   
     axis 0 0 -20   XYZ
    dof rx ry rz
    limits (-160.0 20.0)
           (-70.0 70.0)
           (-70.0 60.0)
  end
  begin
     id 8 
     name rtibia
     direction -0.34202 -0.939693 0   
     length 7.72868   
     axis 0 0 -20   XYZ
    dof rx
    limits (-10.0 170.0)
 end
 begin
     id 9 
     name rfoot
     direction -0.0920068 -0.252865 0.963117   
     length 1.97476  
     axis -90 -7.62852e-016 -20   XYZ
    dof rx rz
    limits (-45.0 90.0)
           (-20.0 70.0)
  end
  begin
     id 10 
     name rtoes
     direction 0.000391322 0.00230649 0.999997   
     length 0.992641   
     axis -90 -7.62852e-016 -20   XYZ
    dof rx
    limits (-90.0 20.0)
  end
  begin
     id 11 
     name lowerback
     direction -0.00875327 0.998321 -0.0572635   
     length 2.20024   
     axis 0 0 0   XYZ
    dof rx ry rz
    limits (-20.0 45.0)
           (-30.0 30.0)
           (-30.0 30.0)
  end
  begin
     id 12 
     name upperback
     direction 0.00753931 0.999972 -0.000360425   
     length 2.20538   
     axis 0 0 0   XYZ
    dof rx ry rz
    limits (-20.0 45.0)
           (-30.0 30.0)
           (-30.0 30.0)
  end
  begin
     id 13 
     name thorax
     direction 0.0117767 0.999601 0.0256663   
     length 2.21508   
     axis 0 0 0   XYZ
    dof rx ry rz
    limits (-20.0 45.0)
           (-30.0 30.0)
           (-30.0 30.0)
  end
  begin
     id 14 
     name lowerneck
     direction 0.060228 0.994909 0.0807986   
     length 1.7607   
     axis 0 0 0   XYZ
    dof rx ry rz
    limits (-20.0 45.0)
           (-30.0 30.0)
           (-30.0 30.0)
  end
  begin
     id 15 
     name upperneck
     direction -0.0563647 0.959594 -0.275685   
     length 1.75612   
     axis 0 0 0   XYZ
    dof rx ry rz
    limits (-20.0 45.0)
           (-30.0 30.0)
           (-30.0 30.0)
  end
  begin
     id 16
     name head
     direction -0.0161544 0.99458 -0.102714  
     length 1.79288  
     axis 0 0 0   XYZ
    dof rx ry rz
    limits (-20.0 45.0)
           (-30.0 30.0)
           (-30.0 30.0)
  end
  begin
     id 17 
     name lclavicle
     direction 0.93913 0.332189 -0.087669  
     length 3.52087  
     axis 0 0 0   XYZ
    dof ry rz
    limits (-20.0 10.0)
           (0.0 20.0)
  end
  begin
     id 18 
     name lhumerus
     direction 1 -4.48974e-011 -2.70836e-027   
     length 5.35289   
     axis -180 -30 -90   XYZ
    dof rx ry rz
    limits (-60.0 90.0)
           (-90.0 90.0)
           (-90.0 90.0)
  end
  begin
     id 19
     name lradius
     direction 1 -4.48961e-011 -9.76021e-027   
     length 3.27727   
     axis -180 -30 -90   XYZ
    dof rx
    limits (-10.0 170.0)
  end
  begin
     id 20
     name lwrist
     direction 1 -4.49103e-011 -2.23668e-026   
     length 1.63864   
     axis 1.44924e-014 90 90   XYZ
    dof ry
    limits (-180.0 0.0)
 end
  begin
     id 21 
     name lhand
     direction 1 3.0697e-005 0.000161777   
     length 0.54443   
     axis 2.85318e-014 90 90   XYZ
    dof rx rz
    limits (-90.0 90.0)
           (-45.0 45.0)
  end
  begin
     id 22 
     name lfingers
     direction 1 -4.49027e-011 -8.9447e-026   
     length 0.438912   
     axis 5.70628e-014 90 90   XYZ
    dof rx
    limits (0.0 90.0)
  end
  begin
     id 23
     name lthumb
     direction 0.707058 2.6516e-005 0.707156   
     length 0.630274   
     axis -90 45 -3.53137e-014   XYZ
    dof rx rz
    limits (-45.0 45.0)
           (-45.0 45.0)
  end
  begin
     id 24 
     name rclavicle
     direction -0.95274 0.284984 -0.105215   
     length 3.43401  
     axis 0 0 0   XYZ 
    dof ry rz
    limits (-10.0 20.0)
           (-20.0 0.0)
  end
  begin
     id 25 
     name rhumerus
     direction -0.999999 -0.000575019 -0.00106829  
     length 5.52077   
     axis -180 30 90   XYZ
    dof rx ry rz
    limits (-90.0 60.0)
           (-90.0 90.0)
           (-90.0 90.0)
  end
  begin
     id 26 
     name rradius
     direction -1 -4.4879e-011 -6.35415e-027   
     length 3.32364   
     axis -180 30 90   XYZ
    dof rx
    limits (-10.0 170.0)
  end
  begin
     id 27 
     name rwrist
     direction -1 -4.49048e-011 -9.98542e-027   
     length 1.66182   
     axis 6.32482e-015 -90 -90   XYZ
    dof ry
    limits (-180.0 0.0)
  end
  begin
     id 28
     name rhand
     direction -1 -4.48978e-011 -1.99771e-026   
     length 0.732235   
     axis 1.27479e-014 -90 -90   XYZ
    dof rx rz
    limits (-90.0 90.0)
           (-45.0 45.0)
  end
  begin
     id 29
     name rfingers
     direction -1 -4.49144e-011 -3.99245e-026   
     length 0.590347   
     axis 2.5496e-014 -90 -90   XYZ
    dof rx
    limits (0.0 90.0)
  end
  begin
     id 30
     name rthumb
     direction -0.707107 -6.35121e-011 0.707107   
     length 0.847624   
     axis -90 -45 -2.82974e-014   XYZ
    dof rx rz
    limits (-45.0 45.0)
           (-45.0 45.0)
  end
:hierarchy
  begin
    root lhipjoint rhipjoint lowerback
    lhipjoint lfemur
    lfemur ltibia
    ltibia lfoot
    lfoot ltoes
    rhipjoint rfemur
    rfemur rtibia
    rtibia rfoot
    rfoot rtoes
    lowerback upperback
    upperback thorax
    thorax lowerneck lclavicle rclavicle
    lowerneck upperneck
    upperneck head
    lclavicle lhumerus
    lhumerus lradius
    lradius lwrist
    lwrist lhand lthumb
    lhand lfingers
    rclavicle rhumerus
    rhumerus rradius
    rradius rwrist
    rwrist rhand rthumb
    rhand rfingers
  end

#!OML:ASF G:\Work\Work\Patient Classification 1\Elijah\terrain1\Elijah.ASF
:FULLY-SPECIFIED
:DEGREES
266
root 15.6639 20.2576 13.7201 11.8135 -2.57071 -5.16662
lowerback 8.34115 1.87452 3.64102
upperback -0.613529 2.74933 -2.17633
thorax -5.04352 1.23055 -4.66731
lowerneck -18.2938 11.1612 12.228
upperneck 12.4901 15.6265 -18.7504
head 9.54273 6.3151 -6.09509
rclavicle -1.78906e-015 1.51076e-014
rhumerus -46.372 10.1362 -95.0684
rradius 68.3404
rwrist -10.9119
rhand -13.4077 19.2891
rfingers 7.12502
rthumb 12.7002 -10.3047
lclavicle -1.78906e-015 1.51076e-014
lhumerus -39.05 15.4168 71.4887
lradius 25.8944
lwrist -3.23066
lhand -18.9991 23.3349
lfingers 7.12502
lthumb 7.30601 53.1888
rfemur 2.60913 4.29632 28.8777
rtibia 16.2942
rfoot 0.977698 -0.737195
rtoes -15.1725
lfemur -61.5415 -1.02154 -13.8709
ltibia 62.4879
lfoot -11.7565 -9.6753
ltoes -12.4067
267
root 15.7203 20.2997 13.885 12.3587 -1.63287 -5.16631
lowerback 7.13783 1.54638 4.34391
upperback -0.35645 2.32932 -2.32292
thorax -4.10726 1.03816 -5.11109
lowerneck -18.2938 11.1612 12.228
upperneck 12.4901 15.6265 -18.7504
head 9.54273 6.3151 -6.09509
rclavicle 1.51076e-014 -3.97569e-015
rhumerus -45.723 10.2048 -95.1323
rradius 67.6554
rwrist -11.4538
rhand -13.5169 19.1281
rfingers 7.12502
rthumb 12.5949 -10.4722
lclavicle 1.51076e-014 -3.97569e-015
lhumerus -38.2592 15.9627 71.3383
lradius 25.9947
lwrist -3.34138
lhand -19.2372 23.4732
lfingers 7.12502
lthumb 7.07622 53.335
rfemur 2.4636 2.52077 28.5146
rtibia 16.1818
rfoot 3.65703 0.144504
rtoes -14.0544
lfemur -61.5859 -2.37319 -13.8059
ltibia 62.5843
lfoot -12.3104 -9.05715
ltoes -11.7648
268
root 15.7105 20.3571 14.0565 12.2725 -2.25952 -4.97099
lowerback 7.49029 1.78325 3.38855
upperback -0.627265 2.5715 -2.35912
thorax -4.59861 1.16005 -4.65585
lowerneck -18.2938 11.1612 12.228
upperneck 12.4901 15.6265 -18.7504
head 9.54273 6.3151 -6.09509
rclavicle 1.13307e-014 6.36111e-015
rhumerus -46.1017 10.2427 -95.3227
rradius 66.9222
rwrist -11.7163
rhand -13.7077 18.824
rfingers 7.12502
rthumb 12.4109 -10.7876
lclavicle 1.13307e-014 6.36111e-015
lhumerus -38.6368 15.6149 71.2767
lradius 26.5822
lwrist -3.00542
lhand -18.8311 25.5809
lfingers 7.12502
lthumb 7.46815 55.429
rfemur 2.89198 3.93878 28.3578
rtibia 16.0149
rfoot 5.84352 -0.270453
rtoes -15.7126
lfemur -60.5786 -2.23855 -13.9157
ltibia 62.5225
lfoot -12.9925 -8.54418
ltoes -11.4709
269
root 15.7314 20.4097 14.2172 12.4829 -2.20488 -5.03396
lowerback 7.35865 1.79248 3.38452
upperback -0.803902 2.57853 -2.40811
thorax -4.70649 1.15713 -4.70542
lowerneck -18.2938 11.1612 12.228
upperneck 12.4901 15.6265 -18.7504
head 9.54273 6.3151 -6.09509
rclavicle -4.37326e-015 0
rhumerus -46.2319 10.3323 -95.4895
rradius 66.0975
rwrist -11.931
rhand -13.9009 18.7076
rfingers 7.12502
rthumb 12.2247 -10.9152
lclavicle -4.37326e-015 0
lhumerus -38.6456 15.4238 71.2151
lradius 26.9088
lwrist -2.72383
lhand -18.59 26.3797
lfingers 7.12502
lthumb 7.70088 56.2195
rfemur 2.74362 3.80336 28.2162
rtibia 16.186
rfoot 8.44672 -0.025665
rtoes -15.2257
lfemur -60.0185 -2.60986 -13.8323
ltibia 62.4203
lfoot -13.4996 -8.1455
ltoes -11.4845
270
root 15.7447 20.4602 14.3801 12.5781 -2.165 -5.17579
lowerback 7.56688 1.82422 3.29125
upperback -1.11463 2.62108 -2.35575
thorax -5.15214 1.16356 -4.62268
lowerneck -18.2938 11.1612 12.228
upperneck 12.4901 15.6265 -18.7504
head 9.54273 6.3151 -6.09509
rclavicle -2.34566e-014 4.77083e-015
rhumerus -46.6781 10.4801 -95.6569
rradius 65.2953
rwrist -11.978
rhand -13.92 18.7997
rfingers 7.12502
rthumb 12.2063 -10.8242
lclavicle -2.34566e-014 4.77083e-015
lhumerus -38.8316 15.4741 71.014
lradius 27.0193
lwrist -2.67642
lhand -18.4116 26.4165
lfingers 7.12502
lthumb 7.87312 56.2499
rfemur 2.5082 3.93946 28.2127
rtibia 16.7094
rfoot 10.5915 0.177549
rtoes -16.7439
lfemur -59.3122 -2.87403 -13.6739
ltibia 62.2464
lfoot -13.9212 -7.89446
ltoes -10.8176
271
root 15.7537 20.516 14.5397 12.5974 -2.13159 -5.14281
lowerback 7.28882 1.89893 3.02185
upperback -0.970014 2.68922 -2.34935
thorax -4.84798 1.21587 -4.4521
lowerneck -18.2938 11.1612 12.228
upperneck 12.4901 15.6265 -18.7504
head 9.54273 6.3151 -6.09509
rclavicle 6.55989e-015 -1.27222e-014
rhumerus -46.3713 10.5568 -95.5805
rradius 64.6313
rwrist -11.9531
rhand -13.4803 18.5003
rfingers 7.12502
rthumb 12.6302 -11.0978
lclavicle 6.55989e-015 -1.27222e-014
lhumerus -38.2665 15.5294 71.2202
lradius 27.2765
lwrist -2.4727
lhand -17.9082 28.1741
lfingers 7.12502
lthumb 8.35891 57.9887
rfemur 2.1467 4.47221 28.0901
rtibia 17.5288
rfoot 12.8158 -0.0283689
rtoes -17.7384
lfemur -58.5244 -3.12446 -13.7231
ltibia 62.0141
lfoot -14.2724 -7.63998
ltoes -10.4693
272
root 15.7758 20.5694 14.7014 12.708 -1.92248 -5.1316
lowerback 6.97523 1.8752 2.93282
upperback -1.00175 2.64489 -2.31412
thorax -4.71354 1.20003 -4.34601
lowerneck -18.2938 11.1612 12.228
upperneck 12.4901 15.6265 -18.7504
head 9.54273 6.3151 -6.09509
rclavicle 1.25234e-014 -1.90833e-014
rhumerus -46.4094 10.7232 -95.5404
rradius 64.0932
rwrist -11.8988
rhand -13.0483 18.1043
rfingers 7.12502
rthumb 13.0466 -11.4677
lclavicle 1.25234e-014 -1.90833e-014
lhumerus -38.1155 15.3205 71.4866
lradius 27.8101
lwrist -1.78413
lhand -18.3596 26.7689
lfingers 7.12502
lthumb 7.92324 56.6004
rfemur 1.60761 4.52294 27.8697
rtibia 18.5371
rfoot 14.9625 -0.0736131
rtoes -16.9806
lfemur -57.8257 -3.48586 -13.8203
ltibia 61.7674
lfoot -14.7074 -7.37666
ltoes -11.279
273
root 15.8108 20.6213 14.8616 12.8907 -1.66833 -4.78817
lowerback 6.56662 1.80739 2.73143
upperback -1.02041 2.5239 -2.43861
thorax -4.5163 1.1487 -4.33208
lowerneck -18.2938 11.1612 12.228
upperneck 12.4901 15.6265 -18.7504
head 9.54273 6.3151 -6.09509
rclavicle -1.90833e-014 2.78299e-014
rhumerus -46.2565 10.9477 -95.5873
rradius 63.2166
rwrist -11.7217
rhand -12.9311 18.0881
rfingers 7.12502
rthumb 13.1596 -11.4766
lclavicle -1.90833e-014 2.78299e-014
lhumerus -37.9332 14.9007 71.7557
lradius 28.4839
lwrist -0.785334
lhand -18.4422 25.4389
lfingers 7.12502
lthumb 7.84357 55.2734
rfemur 0.871917 3.87007 27.1248
rtibia 19.8133
rfoot 16.3976 0.562466
rtoes -16.587
lfemur -57.1683 -4.05273 -14.299
ltibia 61.4705
lfoot -15.2046 -7.14307
ltoes -11.2573
274
root 15.8028 20.6756 15.0223 12.7003 -2.26066 -4.672
lowerback 6.78445 2.07327 1.99094
upperback -1.1369 2.81667 -2.47646
thorax -4.76628 1.30557 -3.99679
lowerneck -18.2938 11.1612 12.228
upperneck 12.4901 15.6265 -18.7504
head 9.54273 6.3151 -6.09509
rclavicle -3.61788e-014 8.74653e-015
rhumerus -46.3094 11.0076 -95.7442
rradius 62.1561
rwrist -11.3487
rhand -12.9945 18.5809
rfingers 7.12502
rthumb 13.0985 -10.9878
lclavicle -3.61788e-014 8.74653e-015
lhumerus -37.9737 14.2193 71.9746
lradius 29.2208
lwrist 0.182578
lhand -18.4741 24.435
lfingers 7.12502
lthumb 7.81275 54.2706
rfemur 0.367622 4.77862 26.8702
rtibia 21.2895
rfoot 17.5032 0.604242
rtoes -16.4205
lfemur -56.0637 -3.71326 -14.4677
ltibia 61.187
lfoot -15.6184 -7.21724
ltoes -9.61814
275
root 15.8358 20.7285 15.1697 12.9129 -1.96542 -4.41747
lowerback 6.78992 1.96891 1.89334
upperback -1.4175 2.66177 -2.59329
thorax -5.07472 1.21994 -4.05865
lowerneck -18.2938 11.1612 12.228
upperneck 12.4901 15.6265 -18.7504
head 9.54273 6.3151 -6.09509
rclavicle -2.18663e-014 -6.36111e-015
rhumerus -46.5203 11.163 -95.8827
rradius 61.3415
rwrist -10.8046
rhand -12.9684 19.1177
rfingers 7.12502
rthumb 13.1236 -10.4493
lclavicle -2.18663e-014 -6.36111e-015
lhumerus -37.9458 13.8557 72.1111
lradius 29.6693
lwrist 0.722357
lhand -18.2506 24.5857
lfingers 7.12502
lthumb 8.02849 54.4132
rfemur -0.614197 3.8999 26.2849
rtibia 22.9819
rfoot 18.4823 1.77201
rtoes -16.7068
lfemur -55.5489 -4.17035 -14.8308
ltibia 60.8728
lfoot -15.828 -7.30633
ltoes -8.13486
276
root 15.8262 20.7685 15.315 12.7537 -2.51823 -4.93077
lowerback 6.94733 2.17732 1.73735
upperback -1.37554 2.9381 -2.37598
thorax -5.11585 1.3641 -3.77842
lowerneck -18.2938 11.1612 12.228
upperneck 12.4901 15.6265 -18.7504
head 9.54273 6.3151 -6.09509
rclavicle 1.0138e-014 1.43125e-014
rhumerus -46.3474 11.4283 -95.8488
rradius 60.7076
rwrist -10.2387
rhand -12.4428 19.1914
rfingers 7.12502
rthumb 13.6303 -10.3423
lclavicle 1.0138e-014 1.43125e-014
lhumerus -37.4647 13.6981 72.37
lradius 29.9107
lwrist 1.20844
lhand -17.4888 25.8122
lfingers 7.12502
lthumb 8.76369 55.6102
rfemur -1.16191 4.84667 26.7631
rtibia 24.5657
rfoot 19.4884 1.64489
rtoes -17.7897
lfemur -54.5371 -3.3834 -14.4642
ltibia 60.6074
lfoot -16.169 -7.41379
ltoes -8.67339
277
root 15.8651 20.8239 15.4657 13.14 -2.38318 -4.51198
lowerback 6.22511 2.10946 1.56979
upperback -1.33441 2.82173 -2.55253
thorax -4.67157 1.31881 -3.81818
lowerneck -18.2938 11.1612 12.228
upperneck 12.4901 15.6265 -18.7504
head 9.54273 6.3151 -6.09509
rclavicle -8.54774e-015 -6.36111e-015
rhumerus -46.0009 11.5346 -95.7845
rradius 60.0179
rwrist -9.59894
rhand -11.9624 19.3613
rfingers 7.12502
rthumb 14.0932 -10.1408
lclavicle -8.54774e-015 -6.36111e-015
lhumerus -36.9281 13.3223 72.73
lradius 30.4158
lwrist 1.92956
lhand -16.9237 26.3307
lfingers 7.12502
lthumb 9.309 56.1051
rfemur -2.27053 3.97976 25.8901
rtibia 26.1513
rfoot 20.3616 2.21337
rtoes -17.9267
lfemur -53.9986 -3.61417 -15.1527
ltibia 60.1495
lfoot -16.4795 -7.32281
ltoes -9.0698
278
root 15.8761 20.8879 15.6283 13.1032 -2.5683 -4.85645
lowerback 6.02699 2.18134 1.72348
upperback -1.39139 2.93213 -2.47761
thorax -4.60683 1.37124 -3.82868
lowerneck -18.2938 11.1612 12.228
upperneck 12.4901 15.6265 -18.7504
head 9.54273 6.3151 -6.09509
rclavicle -1.05356e-014 3.18055e-015
rhumerus -46.0122 11.6064 -95.8372
rradius 59.3463
rwrist -9.02972
rhand -11.7345 19.7127
rfingers 7.12502
rthumb 14.3128 -9.77401
lclavicle -1.05356e-014 3.18055e-015
lhumerus -36.8114 12.91 72.8836
lradius 31.0574
lwrist 2.52208
lhand -16.6972 25.8163
lfingers 7.12502
lthumb 9.52754 55.5809
rfemur -2.94648 4.11843 26.0902
rtibia 27.7584
rfoot 21.2115 1.91063
rtoes -18.2279
lfemur -53.0279 -3.27786 -14.9433
ltibia 59.6205
lfoot -16.7321 -7.60372
ltoes -8.21609
279
root 15.8843 20.9557 15.782 13.0364 -2.88499 -4.80665
lowerback 6.39058 2.25072 1.31387
upperback -1.82237 2.99052 -2.44934
thorax -5.28138 1.39491 -3.60974
lowerneck -18.2938 11.1612 12.228
upperneck 12.4901 15.6265 -18.7504
head 9.54273 6.3151 -6.09509
rclavicle -4.9895e-014 -2.38542e-015
rhumerus -46.5021 11.7706 -95.9737
rradius 58.5905
rwrist -8.58165
rhand -11.2511 19.8944
rfingers 7.12502
rthumb 14.7786 -9.55866
lclavicle -4.9895e-014 -2.38542e-015
lhumerus -37.5419 12.2257 72.9334
lradius 32.0562
lwrist 3.25976
lhand -16.4517 26.3071
lfingers 7.12502
lthumb 9.76433 56.0607
rfemur -3.71809 4.37165 25.9132
rtibia 29.5256
rfoot 22.2946 1.0443
rtoes -17.2232
lfemur -51.9449 -2.90335 -15.1896
ltibia 58.9486
lfoot -17.0874 -7.83481
ltoes -7.80449
280
root 15.8994 21.0176 15.933 13.0092 -3.08438 -4.51285
lowerback 6.01612 2.27526 0.879396
upperback -1.74043 2.9847 -2.52355
thorax -5.001 1.41052 -3.41947
lowerneck -18.2938 11.1612 12.228
upperneck 12.4901 15.6265 -18.7504
head 9.54273 6.3151 -6.09509
rclavicle -4.75095e-014 3.10104e-014
rhumerus -45.9965 11.9729 -95.919
rradius 57.5194
rwrist -7.99898
rhand -10.8964 20.2103
rfingers 7.12502
rthumb 15.1203 -9.21741
lclavicle -4.75095e-014 3.10104e-014
lhumerus -37.3738 11.8017 73.2279
lradius 32.8647
lwrist 4.00361
lhand -16.6653 27.1715
lfingers 7.12502
lthumb 9.55825 56.9347
rfemur -4.57926 4.23381 25.428
rtibia 31.4618
rfoot 23.0729 -0.375897
rtoes -13.9387
lfemur -50.831 -2.73484 -15.7259
ltibia 58.2844
lfoot -17.4367 -7.96807
ltoes -7.50868
